<svg width="255" height="96" viewBox="0 0 255 96" fill="none" xmlns="http://www.w3.org/2000/svg">
<circle cx="128" cy="48" r="48" fill="#D8B3F4"/>
<path d="M127.597 24.2661C122.951 30.9558 120.094 38.2315 118.471 46.1573C118.852 46.1157 119.153 46.0837 119.457 46.0484C126.633 45.2254 132.519 47.4735 136.641 53.5419C139.135 57.2182 140.186 61.3172 138.921 65.7076C137.438 70.857 133.8 73.8992 128.737 75.2186C123.133 76.6756 118.214 75.0809 113.882 71.4174C111.694 69.5664 110.068 67.2704 108.764 64.5772C108.207 65.2561 107.704 65.8581 107.214 66.4698C103.657 70.9402 101.197 75.9327 100.025 81.54C99.9546 81.8762 99.9066 82.1869 99.4006 82.1837C95.7724 82.1613 92.1473 82.1709 88.5191 82.1645C88.4422 82.1645 88.3685 82.126 88.1348 82.0652C88.6888 80.0957 89.1979 78.1231 89.7968 76.1793C91.9295 69.2462 95.1319 62.8831 100.128 57.5544C101.962 55.5978 104.041 53.8718 105.978 52.008C106.254 51.7422 106.51 51.3259 106.545 50.9576C107.794 36.8129 112.934 24.2917 122.166 13.4806C122.381 13.2276 122.826 13.0419 123.165 13.0419C127.191 13.0131 131.219 13.0515 135.244 13.0002C136.048 12.9906 136.391 13.2596 136.705 13.9642C140.973 23.5103 145.271 33.0469 149.562 42.5835C155.362 55.4697 161.161 68.3528 166.96 81.239C167.079 81.5016 167.185 81.7706 167.329 82.11C167.069 82.1388 166.871 82.1773 166.675 82.1773C162.676 82.1805 158.676 82.1677 154.673 82.1933C154.135 82.1965 153.869 82.0203 153.652 81.54C145.098 62.691 136.535 43.8484 127.972 25.0058C127.876 24.7945 127.757 24.5927 127.591 24.2725L127.597 24.2661ZM118.25 57.8875C118.887 60.1131 119.931 62.0185 121.753 63.4211C123.29 64.606 124.975 64.8782 126.771 64.0712C128.036 63.5044 128.497 62.5181 128.055 61.2083C127.841 60.5679 127.511 59.9306 127.101 59.3926C125.135 56.7827 121.99 56.4849 118.246 57.8875H118.25Z" fill="#19184B"/>
<path d="M19.9277 13.0194C22.3999 13.0194 24.7441 13.0194 27.0882 13.0194C28.9551 13.0194 30.8221 13.0386 32.6891 13.0065C33.1694 13.0001 33.3968 13.1667 33.5761 13.5926C38.9721 26.3027 44.3808 39.0064 49.7864 51.7133C52.265 57.5383 54.7404 63.3666 57.219 69.1949C57.2895 69.3614 57.3855 69.5183 57.5296 69.7969C57.9492 68.8362 58.3334 67.9812 58.7017 67.1165C66.2656 49.3403 73.8296 31.5641 81.3743 13.7815C81.6177 13.2083 81.8931 12.9937 82.5367 13.0001C86.4564 13.0354 90.3761 13.0194 94.2989 13.0194H95.1284C94.4751 14.486 93.8634 15.863 93.2454 17.2368C85.6078 34.1964 77.9734 51.1561 70.3358 68.1157C68.3151 72.6054 66.2849 77.0918 64.2802 81.5879C64.088 82.017 63.8703 82.1804 63.3963 82.1804C59.4767 82.1611 55.5538 82.1547 51.6341 82.1868C51.0353 82.1932 50.872 81.8697 50.6798 81.4438C46.0172 71.081 41.3482 60.7215 36.6856 50.3619C31.2064 38.1802 25.7272 25.9952 20.2512 13.8103C20.1551 13.5958 20.075 13.3748 19.9309 13.0194H19.9277Z" fill="#19184B"/>
<path d="M188.937 70.7431H235.07V82.1082H176.906V13.0625H188.937V70.7431Z" fill="#19184B"/>
<path d="M7.12221 47.3548C11.0259 47.3356 14.2474 50.4835 14.273 54.3423C14.3019 58.3644 11.1059 61.6404 7.15423 61.6372C3.25057 61.6372 0.0258145 58.4349 0.000195738 54.5312C-0.0286254 50.5539 3.12888 47.3708 7.12221 47.3516V47.3548Z" fill="#19184B"/>
<path d="M255 54.4839C254.987 58.4292 251.82 61.6284 247.913 61.6412C243.955 61.654 240.695 58.3716 240.721 54.3975C240.746 50.5066 243.984 47.3395 247.92 47.3555C251.871 47.3715 255.013 50.5355 254.997 54.4839H255Z" fill="#19184B"/>
</svg>
