<svg width="40" height="40" viewBox="0 0 40 40" fill="none" xmlns="http://www.w3.org/2000/svg">
<path d="M6.66668 11.6666C0.666682 16.9999 11.9445 28.3333 18.3333 33.3333C19.4445 31.9444 21.0001 27.5 18.3333 20.8333C15.6666 14.1667 18.3334 10.8333 20.0001 9.99993C18.0556 8.33326 12.6667 6.33326 6.66668 11.6666Z" fill="#FF9898"/>
<path d="M33.6001 8.3332C31.8334 6.56188 29.4915 5.48077 26.9974 5.28515C24.5033 5.08954 22.0214 5.79231 20.0001 7.26654C17.8796 5.68926 15.2401 4.97405 12.6133 5.26493C9.98655 5.55581 7.56753 6.83117 5.84342 8.83418C4.11931 10.8372 3.21817 13.4191 3.32147 16.0599C3.42477 18.7007 4.52483 21.2043 6.40013 23.0665L16.7501 33.4332C17.6168 34.2862 18.7841 34.7642 20.0001 34.7642C21.2162 34.7642 22.3834 34.2862 23.2501 33.4332L33.6001 23.0665C35.5461 21.1086 36.6383 18.4603 36.6383 15.6999C36.6383 12.9394 35.5461 10.2911 33.6001 8.3332ZM31.2501 20.7665L20.9001 31.1165C20.7824 31.2355 20.6422 31.3299 20.4877 31.3943C20.3332 31.4587 20.1675 31.4919 20.0001 31.4919C19.8328 31.4919 19.667 31.4587 19.5126 31.3943C19.3581 31.3299 19.2179 31.2355 19.1001 31.1165L8.75013 20.7165C7.44306 19.3804 6.71115 17.5856 6.71115 15.7165C6.71115 13.8474 7.44306 12.0526 8.75013 10.7165C10.0821 9.40152 11.8784 8.66415 13.7501 8.66415C15.6218 8.66415 17.4182 9.40152 18.7501 10.7165C18.9051 10.8727 19.0894 10.9967 19.2925 11.0814C19.4956 11.166 19.7134 11.2095 19.9335 11.2095C20.1535 11.2095 20.3713 11.166 20.5744 11.0814C20.7775 10.9967 20.9619 10.8727 21.1168 10.7165C22.4487 9.40152 24.2451 8.66415 26.1168 8.66415C27.9885 8.66415 29.7849 9.40152 31.1168 10.7165C32.4418 12.0351 33.1978 13.8202 33.2227 15.6893C33.2476 17.5585 32.5395 19.3631 31.2501 20.7165V20.7665Z" fill="black"/>
</svg>
